<?xml version="1.0" encoding="utf-8"?>
<!DOCTYPE svg PUBLIC "-//W3C//DTD SVG 1.1//EN" "http://www.w3.org/Graphics/SVG/1.1/DTD/svg11.dtd">
<svg version="1.1" xmlns="http://www.w3.org/2000/svg" xmlns:xlink="http://www.w3.org/1999/xlink" viewBox="0 0 512 512" width="512" height="512">
    <path fill="#f0eaea" d="m256 512c-68.38 0-132.667-26.629-181.02-74.98-48.351-48.353-74.98-112.64-74.98-181.02s26.629-132.667 74.98-181.02c48.353-48.351 112.64-74.98 181.02-74.98s132.667 26.629 181.02 74.98c48.351 48.353 74.98 112.64 74.98 181.02s-26.629 132.667-74.98 181.02c-48.353 48.351-112.64 74.98-181.02 74.98z"/>
    <g fill="#4ad295">
        <path d="m256 392c-13.255 0-24-10.745-24-24v-224c0-13.255 10.745-24 24-24s24 10.745 24 24v224c0 13.255-10.745 24-24 24z"/>
        <path d="m176 344c-13.255 0-24-10.745-24-24v-128c0-13.255 10.745-24 24-24s24 10.745 24 24v128c0 13.255-10.745 24-24 24z"/>
        <path d="m416 304c-13.255 0-24-10.745-24-24v-48c0-13.255 10.745-24 24-24s24 10.745 24 24v48c0 13.255-10.745 24-24 24z"/>
        <path d="m336 344c-13.255 0-24-10.745-24-24v-128c0-13.255 10.745-24 24-24s24 10.745 24 24v128c0 13.255-10.745 24-24 24z"/>
        <path d="m96 304c-13.255 0-24-10.745-24-24v-48c0-13.255 10.745-24 24-24s24 10.745 24 24v48c0 13.255-10.745 24-24 24z"/>
    </g>
</svg>
