<?xml version="1.0" standalone="no"?>
<svg xmlns="http://www.w3.org/2000/svg" viewBox="0 0 1440 320">
    <defs xmlns="http://www.w3.org/2000/svg">
        <linearGradient id="gradient" x1="50%" x2="50%" y1="-10%" y2="100%">
            <stop stop-color="#57BBC1" offset="0%"/>
            <stop stop-color="#a7e9af" stop-opacity="0.8" offset="100%"/>
        </linearGradient>
    </defs>
    <path fill="url(#gradient)" fill-opacity="1" d="M0,192L48,192C96,192,192,192,288,181.3C384,171,480,149,576,128C672,107,768,85,864,106.7C960,128,1056,192,1152,208C1248,224,1344,192,1392,176L1440,160L1440,0L1392,0C1344,0,1248,0,1152,0C1056,0,960,0,864,0C768,0,672,0,576,0C480,0,384,0,288,0C192,0,96,0,48,0L0,0Z"/>
</svg>